<svg fill="none" height="424" width="2500" xmlns="http://www.w3.org/2000/svg" viewBox="0 -0.00032113529867494606 176.73772598867612 30.01281747908851"><g clip-rule="evenodd" fill-rule="evenodd"><path d="M79.678 6.62a.455.455 0 0 0-.4-.266h-.223a.404.404 0 0 0-.4.267L71.1 23.019a.424.424 0 0 0 .4.623h2.133a.695.695 0 0 0 .71-.49l1.2-2.622h7.289l1.2 2.621c.177.356.355.49.71.49h2.134c.354 0 .575-.312.398-.622zm-3.023 11.196l2.4-5.333h.088l2.445 5.333zM45.432 6.43c.07.047.127.113.162.19l7.59 16.399c.176.31-.044.623-.399.623h-2.134c-.354 0-.532-.135-.71-.49l-1.2-2.622h-7.28l-1.2 2.621a.696.696 0 0 1-.711.49h-2.132a.423.423 0 0 1-.4-.622L44.57 6.62a.406.406 0 0 1 .4-.267h.222a.454.454 0 0 1 .239.076zm-.46 6.053l-2.401 5.333h4.938l-2.45-5.333zm21.55-5.862h2.223a.417.417 0 0 1 .442.444v16.354a.447.447 0 0 1-.444.445h-.575L57.992 12.709h-.044V23.15a.446.446 0 0 1-.444.445H55.28a.477.477 0 0 1-.444-.445V6.8a.446.446 0 0 1 .444-.445h.621L66.034 17.11h.046V7.065a.445.445 0 0 1 .443-.444zm33.641 12.547c.115 0 .225.042.312.117l1.465 1.556a.483.483 0 0 1-.044.666 8.326 8.326 0 0 1-5.91 2.357 8.754 8.754 0 1 1 0-17.51c2.445 0 4.222.801 5.866 2.267a.45.45 0 0 1 .172.323.45.45 0 0 1-.128.343l-1.465 1.512a.434.434 0 0 1-.623 0 5.747 5.747 0 0 0-3.734-1.422c-3.109 0-5.421 2.623-5.421 5.688 0 3.021 2.356 5.598 5.467 5.598a5.748 5.748 0 0 0 3.732-1.378.473.473 0 0 1 .311-.117zm11.821-12.814a8.755 8.755 0 1 0 8.753 8.8 8.706 8.706 0 0 0-2.536-6.231 8.704 8.704 0 0 0-6.217-2.569zm0 14.355a5.58 5.58 0 0 1-5.475-5.578 5.58 5.58 0 0 1 11.157 0 5.576 5.576 0 0 1-3.516 5.183 5.574 5.574 0 0 1-2.166.395zM135.091 6.62h2.222a.478.478 0 0 1 .441.444v16.354a.446.446 0 0 1-.444.444h-.575L126.559 12.71h-.044V23.15a.45.45 0 0 1-.445.445h-2.222a.479.479 0 0 1-.444-.445V6.8a.445.445 0 0 1 .444-.445h.623l10.132 10.755h.044V7.065a.446.446 0 0 1 .444-.444zm11.954 0h-5.777a.474.474 0 0 0-.445.445v16.092a.45.45 0 0 0 .445.444h5.777a8.532 8.532 0 0 0 8.533-8.53c0-4.629-3.822-8.45-8.533-8.45zm-.266 14.042h-2.801V9.553h2.765c3.155 0 5.465 2.4 5.465 5.555.036 3.157-2.274 5.555-5.429 5.555zm17.552-13.958l7.507 16.358a.426.426 0 0 1-.324.623h-2.132c-.356 0-.532-.135-.71-.489l-1.202-2.623h-7.279l-1.199 2.623a.701.701 0 0 1-.711.489h-2.134a.425.425 0 0 1-.401-.623l7.564-16.358a.4.4 0 0 1 .4-.266h.222a.442.442 0 0 1 .399.266zm-.577 5.781l-2.4 5.33h4.929l-2.441-5.33zm11.109 10.887h.134a.094.094 0 0 0 .088-.088v-.445h.267l.178.489c0 .044.044.044.088.044h.178a.098.098 0 0 0 .062-.027.1.1 0 0 0 .028-.061c-.046-.068-.079-.147-.113-.226a1.466 1.466 0 0 0-.109-.219.451.451 0 0 0 .31-.444.46.46 0 0 0-.298-.458.46.46 0 0 0-.19-.03h-.575a.094.094 0 0 0-.088.087v1.29c-.002.054-.003.075.006.083.007.005.017.005.034.005zm.222-1.2h.357a.161.161 0 0 1 .167.108.193.193 0 0 1-.167.248h-.347zm.77 1.81c-.174.071-.36.106-.547.104a1.424 1.424 0 0 1-1.395-1.698 1.422 1.422 0 0 1 2.816.275 1.402 1.402 0 0 1-.874 1.32zm.091-2.325a1.148 1.148 0 0 0-.638-.194v-.007a1.176 1.176 0 0 0-1.15 1.157 1.152 1.152 0 0 0 1.374 1.127 1.145 1.145 0 0 0 .903-.903 1.152 1.152 0 0 0-.489-1.18z" fill="#0a1116"/><path d="M15.065 0c-.574 0-1.15.044-1.69.088a17.873 17.873 0 0 1 2.267 1.828l.575.534-.575.575a15.53 15.53 0 0 0-1.422 1.511v.044a3.11 3.11 0 0 0-.222.267c.355-.037.71-.052 1.067-.044a10.222 10.222 0 0 1 0 20.442 9.962 9.962 0 0 1-5.333-1.511c-.767.088-1.538.133-2.31.134a8.285 8.285 0 0 1-1.068-.046c.042 1.204.146 2.406.313 3.6A14.767 14.767 0 0 0 15.065 30 14.999 14.999 0 0 0 25.672 4.393 14.999 14.999 0 0 0 15.065 0zM6.933 2.4A14.916 14.916 0 0 1 10.22.8c-.378.693-.72 1.404-1.025 2.132A20.729 20.729 0 0 0 6.933 2.4zM6.09 7.854c.6-.04 1.17-.079 1.776-.079a9.067 9.067 0 0 0-1.6 2.045 15.132 15.132 0 0 1-.356-1.954zM5.556 22.93v.088l-.135-.04a17.544 17.544 0 0 1-3.377-.623l-.088-.044.044-.09c.341-1.063.757-2.1 1.243-3.105l.046-.09.088.044c.748.426 1.52.81 2.31 1.149l.09.044v.088a16.283 16.283 0 0 0-.221 2.579zm0 .886v-.088h-.09a22.998 22.998 0 0 1-2.89-.488l-.266-.044.134.222A15.532 15.532 0 0 0 5.6 26.884l.178.178v-.312a23.304 23.304 0 0 1-.222-2.933zm8.442-21.285c-.31.312-.623.667-.933 1.023-.038.044-.266.31-.534.669-.622-.296-1.258-.55-1.889-.802l-.11-.043c.351-.86.767-1.693 1.244-2.49.769.508 1.51 1.056 2.222 1.643zm-11.11 9.6l.045.088.088-.044c.7-.5 1.427-.96 2.178-1.377l.088-.044v-.09A17.19 17.19 0 0 1 4.8 8.046v-.09H4.71c-1.106.202-2.192.499-3.245.889l-.089.044.044.09a13.54 13.54 0 0 0 1.468 3.153zm-.265 1.51l.088-.088.053.126a23.279 23.279 0 0 0 1.556 1.954l.044.045-.044.09a20.303 20.303 0 0 0-1.341 2.044l-.044.088-.088-.044a25.602 25.602 0 0 1-2.49-1.866l-.09-.09.09-.08c.698-.783 1.456-1.511 2.266-2.179zm5.998 9.422h.266l-.222-.178a9.253 9.253 0 0 1-2.044-2.31v-.045l-.177-.09v.134a19.975 19.975 0 0 0-.178 2.357v.088h.088c.179 0 .356.01.534.022.178.01.355.022.533.022zm.134-18.797c-.254.712-.462 1.44-.623 2.178-.772-.003-1.543.04-2.31.128a21.839 21.839 0 0 1 .044-2.933c.976.141 1.942.35 2.889.627zm.799 2.13a13.006 13.006 0 0 1 2.09-1.02 12.34 12.34 0 0 0-1.602-.667 19.517 19.517 0 0 0-.488 1.687zM2.49 18.583h.087l-.043.176c-.4.81-.756 1.642-1.067 2.49l-.088.223-.088-.222A14.026 14.026 0 0 1 .09 17.073l-.044-.268.222.178a25.308 25.308 0 0 0 2.222 1.6zM4.488 4.355c-.893.89-1.67 1.89-2.31 2.977.75-.22 1.544-.396 2.337-.57l.018-.005c-.045-.803-.045-1.601-.045-2.402zm.445 10.265v.266l-.127-.224c-.337-.37-.647-.793-.952-1.207-.098-.133-.194-.264-.29-.392l-.135-.09.09-.045c.552-.384 1.104-.726 1.655-1.068l.07-.043.221-.132-.088.268a10.467 10.467 0 0 0-.444 2.667zm.132 1.823l-.044-.266-.132.222c-.4.574-.8 1.199-1.15 1.822l-.046.088.09.044c.604.346 1.251.65 1.9.953l.055.026.222.088-.088-.222a9.84 9.84 0 0 1-.807-2.755zM2.222 12.79l-.09.045a11.028 11.028 0 0 0-1.954 1.873L0 14.886v-.266c.034-1.434.273-2.856.71-4.222l.09-.266.089.222c.386.805.816 1.589 1.29 2.347z" fill="#43b049"/></g></svg>